{"title":"Jennifer Lopez Ft. French Montana - I Luh Ya Papi [Explicit] 720","uid":9789070,"size":89593800,"categoryP":"video","categoryS":"music_videos","magnet":"?xt=urn:btih:fa8794fcae46cc291bde06d3dc988d2b7dfa1588&amp;dn=Jennifer+Lopez+Ft.+French+Montana+-+I+Luh+Ya+Papi+%5BExplicit%5D+720&amp;tr=udp%3A%2F%2Ftracker.openbittorrent.com%3A80&amp;tr=udp%3A%2F%2Fopen.demonii.com%3A1337&amp;tr=udp%3A%2F%2Ftracker.coppersurfer.tk%3A6969&amp;tr=udp%3A%2F%2Fexodus.desync.com%3A6969","seeders":2,"leechers":0,"uploader":"Sbyky","files":1,"time":1395218275,"description":"\n\nGeneral\nComplete name                            : Jennifer Lopez Ft. French Montana - I Luh Ya Papi [Explicit] 720p [Sbyky].MP4\nFormat                                   : MPEG-4\nFormat profile                           : Base Media\nCodec ID                                 : isom\nFile size                                : 85.4 MiB\nDuration                                 : 5mn 17s\nOverall bit rate mode                    : Variable\nOverall bit rate                         : 2 258 Kbps\nEncoded date                             : UTC 2014-03-11 16:42:42\nTagged date                              : UTC 2014-03-11 16:42:42\n\nVideo\nID                                       : 1\nFormat                                   : AVC\nFormat/Info                              : Advanced Video Codec\nFormat profile                           : &lt;a class=&quot;__cf_email__&quot; href=&quot;/cdn-cgi/l/email-protection&quot; data-cfemail=&quot;400d21292e000c736e71&quot;&gt;[email&amp;#160;protected]&lt;/a&gt;&lt;script cf-hash='f9e31' type=&quot;text/javascript&quot;&gt;\n/* &lt;![CDATA[ */!function(){try{var t=&quot;currentScript&quot;in document?document.currentScript:function(){for(var t=document.getElementsByTagName(&quot;script&quot;),e=t.length;e--;)if(t[e].getAttribute(&quot;cf-hash&quot;))return t[e]}();if(t&amp;&amp;t.previousSibling){var e,r,n,i,c=t.previousSibling,a=c.getAttribute(&quot;data-cfemail&quot;);if(a){for(e=&quot;&quot;,r=parseInt(a.substr(0,2),16),n=2;a.length-n;n+=2)i=parseInt(a.substr(n,2),16)^r,e+=String.fromCharCode(i);e=document.createTextNode(e),c.parentNode.replaceChild(e,c)}}}catch(u){}}();/* ]]&gt; */&lt;/script&gt;\nFormat settings, CABAC                   : Yes\nFormat settings, ReFrames                : 3 frames\nCodec ID                                 : avc1\nCodec ID/Info                            : Advanced Video Coding\nDuration                                 : 5mn 17s\nBit rate                                 : 2 130 Kbps\nWidth                                    : 1 280 pixels\nHeight                                   : 720 pixels\nDisplay aspect ratio                     : 16:9\nFrame rate mode                          : Variable\nFrame rate                               : 23.976 fps\nMinimum frame rate                       : 23.974 fps\nMaximum frame rate                       : 24.563 fps\nColor space                              : YUV\nChroma subsampling                       : 4:2:0\nBit depth                                : 8 bits\nScan type                                : Progressive\nBits/(Pixel*Frame)                       : 0.096\nStream size                              : 80.6 MiB (94%)\nEncoded date                             : UTC 2014-03-11 16:42:42\nTagged date                              : UTC 2014-03-11 16:42:42\n\nAudio\nID                                       : 2\nFormat                                   : AAC\nFormat/Info                              : Advanced Audio Codec\nFormat profile                           : LC\nCodec ID                                 : 40\nDuration                                 : 5mn 17s\nBit rate mode                            : Variable\nBit rate                                 : 126 Kbps\nChannel(s)                               : 2 channels\nChannel positions                        : Front: L R\nSampling rate                            : 44.1 KHz\nCompression mode                         : Lossy\nStream size                              : 4.75 MiB (6%)\nEncoded date                             : UTC 2014-03-11 16:42:32\nTagged date                              : UTC 2014-03-11 16:42:32\n\nShared By Sbyky\n","torrent":{"xt":"urn:btih:fa8794fcae46cc291bde06d3dc988d2b7dfa1588","amp;dn":"Jennifer+Lopez+Ft.+French+Montana+-+I+Luh+Ya+Papi+%5BExplicit%5D+720","amp;tr":["udp%3A%2F%2Ftracker.openbittorrent.com%3A80","udp%3A%2F%2Fopen.demonii.com%3A1337","udp%3A%2F%2Ftracker.coppersurfer.tk%3A6969","udp%3A%2F%2Fexodus.desync.com%3A6969"],"infoHash":"fa8794fcae46cc291bde06d3dc988d2b7dfa1588","infoHashBuffer":{"type":"Buffer","data":[250,135,148,252,174,70,204,41,27,222,6,211,220,152,141,43,125,250,21,136]},"announce":[],"urlList":[]}}